<?xml version="1.0" encoding="UTF-8" standalone="no"?>
<!DOCTYPE svg PUBLIC "-//W3C//DTD SVG 1.1//EN"
 "http://www.w3.org/Graphics/SVG/1.1/DTD/svg11.dtd">
<!-- Generated by graphviz version 14.1.5 (0)
 -->
<!-- Title: deps Pages: 1 -->
<svg width="1050pt" height="1267pt"
 viewBox="0.00 0.00 1050.00 1267.00" xmlns="http://www.w3.org/2000/svg" xmlns:xlink="http://www.w3.org/1999/xlink">
<g id="graph0" class="graph" transform="scale(1 1) rotate(0) translate(4 1263.24)">
<title>deps</title>
<polygon fill="white" stroke="none" points="-4,4 -4,-1263.24 1046.02,-1263.24 1046.02,4 -4,4"/>
<text xml:space="preserve" text-anchor="middle" x="521.01" y="-1240.99" font-family="Helvetica,sans-Serif" font-size="15.00">Agent&#45;Driven Investment — backtests V1.1 sizing + agent&#45;cell survey (2026&#45;06&#45;14 (V1.2 rank&#45;sizing))</text>
<g id="clust3" class="cluster">
<title>cluster_v1</title>
<path fill="white" stroke="#b0b0b0" d="M83.02,-884.89C83.02,-884.89 261.02,-884.89 261.02,-884.89 267.02,-884.89 273.02,-890.89 273.02,-896.89 273.02,-896.89 273.02,-1071.56 273.02,-1071.56 273.02,-1077.56 267.02,-1083.56 261.02,-1083.56 261.02,-1083.56 83.02,-1083.56 83.02,-1083.56 77.02,-1083.56 71.02,-1077.56 71.02,-1071.56 71.02,-1071.56 71.02,-896.89 71.02,-896.89 71.02,-890.89 77.02,-884.89 83.02,-884.89"/>
<text xml:space="preserve" text-anchor="middle" x="172.02" y="-1068.16" font-family="Helvetica,sans-Serif" font-weight="bold" font-size="12.00">backtests · V1 (merged)</text>
</g>
<g id="clust4" class="cluster">
<title>cluster_session</title>
<path fill="white" stroke="#b0b0b0" d="M44.02,-306.49C44.02,-306.49 391.02,-306.49 391.02,-306.49 397.02,-306.49 403.02,-312.49 403.02,-318.49 403.02,-318.49 403.02,-864.89 403.02,-864.89 403.02,-870.89 397.02,-876.89 391.02,-876.89 391.02,-876.89 44.02,-876.89 44.02,-876.89 38.02,-876.89 32.02,-870.89 32.02,-864.89 32.02,-864.89 32.02,-318.49 32.02,-318.49 32.02,-312.49 38.02,-306.49 44.02,-306.49"/>
<text xml:space="preserve" text-anchor="middle" x="217.52" y="-861.49" font-family="Helvetica,sans-Serif" font-weight="bold" font-size="12.00">backtests · V1.1 — fresh&#45;OOS + sizing (this session)</text>
</g>
<g id="clust5" class="cluster">
<title>cluster_follow</title>
<path fill="white" stroke="#b0b0b0" d="M423.02,-8C423.02,-8 905.02,-8 905.02,-8 911.02,-8 917.02,-14 917.02,-20 917.02,-20 917.02,-864.89 917.02,-864.89 917.02,-870.89 911.02,-876.89 905.02,-876.89 905.02,-876.89 423.02,-876.89 423.02,-876.89 417.02,-876.89 411.02,-870.89 411.02,-864.89 411.02,-864.89 411.02,-20 411.02,-20 411.02,-14 417.02,-8 423.02,-8"/>
<text xml:space="preserve" text-anchor="middle" x="664.02" y="-861.49" font-family="Helvetica,sans-Serif" font-weight="bold" font-size="12.00">backtests · follow&#45;ups (pending / gated)</text>
</g>
<g id="clust6" class="cluster">
<title>cluster_sched</title>
<path fill="white" stroke="#b0b0b0" d="M842.02,-992.48C842.02,-992.48 1022.02,-992.48 1022.02,-992.48 1028.02,-992.48 1034.02,-998.48 1034.02,-1004.48 1034.02,-1004.48 1034.02,-1065.19 1034.02,-1065.19 1034.02,-1071.19 1028.02,-1077.19 1022.02,-1077.19 1022.02,-1077.19 842.02,-1077.19 842.02,-1077.19 836.02,-1077.19 830.02,-1071.19 830.02,-1065.19 830.02,-1065.19 830.02,-1004.48 830.02,-1004.48 830.02,-998.48 836.02,-992.48 842.02,-992.48"/>
<text xml:space="preserve" text-anchor="middle" x="932.02" y="-1061.79" font-family="Helvetica,sans-Serif" font-weight="bold" font-size="12.00">scheduled tasks / loops</text>
</g>
<!-- legend -->
<g id="node1" class="node">
<title>legend</title>
<path fill="#444444" stroke="none" d="M586.04,-1233.24C586.04,-1233.24 12,-1233.24 12,-1233.24 6,-1233.24 0,-1227.24 0,-1221.24 0,-1221.24 0,-1162.03 0,-1162.03 0,-1156.03 6,-1150.03 12,-1150.03 12,-1150.03 586.04,-1150.03 586.04,-1150.03 592.04,-1150.03 598.04,-1156.03 598.04,-1162.03 598.04,-1162.03 598.04,-1221.24 598.04,-1221.24 598.04,-1227.24 592.04,-1233.24 586.04,-1233.24"/>
<polygon fill="#f6f6f6" stroke="none" points="11.52,-1156.51 11.52,-1226.76 586.52,-1226.76 586.52,-1156.51 11.52,-1156.51"/>
<text xml:space="preserve" text-anchor="start" x="278.39" y="-1205.31" font-family="Helvetica,sans-Serif" font-weight="bold" font-size="11.00">legend</text>
<polygon fill="#ced4da" stroke="none" points="17.52,-1162.51 17.52,-1189.26 102.02,-1189.26 102.02,-1162.51 17.52,-1162.51"/>
<polygon fill="none" stroke="#444444" points="17.52,-1162.51 17.52,-1189.26 102.02,-1189.26 102.02,-1162.51 17.52,-1162.51"/>
<text xml:space="preserve" text-anchor="start" x="24.52" y="-1172.51" font-family="Helvetica,sans-Serif" font-size="10.00">done / merged</text>
<polygon fill="#a8d8c0" stroke="none" points="108.02,-1162.51 108.02,-1189.26 206.77,-1189.26 206.77,-1162.51 108.02,-1162.51"/>
<polygon fill="none" stroke="#444444" points="108.02,-1162.51 108.02,-1189.26 206.77,-1189.26 206.77,-1162.51 108.02,-1162.51"/>
<text xml:space="preserve" text-anchor="start" x="115.02" y="-1172.51" font-family="Helvetica,sans-Serif" font-size="10.00">done this session</text>
<polygon fill="#d4edda" stroke="none" points="212.77,-1162.51 212.77,-1189.26 277.77,-1189.26 277.77,-1162.51 212.77,-1162.51"/>
<polygon fill="none" stroke="#444444" points="212.77,-1162.51 212.77,-1189.26 277.77,-1189.26 277.77,-1162.51 212.77,-1162.51"/>
<text xml:space="preserve" text-anchor="start" x="219.77" y="-1172.51" font-family="Helvetica,sans-Serif" font-size="10.00">actionable</text>
<polygon fill="#d1ecf1" stroke="none" points="283.77,-1162.51 283.77,-1189.26 334.52,-1189.26 334.52,-1162.51 283.77,-1162.51"/>
<polygon fill="none" stroke="#444444" points="283.77,-1162.51 283.77,-1189.26 334.52,-1189.26 334.52,-1162.51 283.77,-1162.51"/>
<text xml:space="preserve" text-anchor="start" x="290.77" y="-1172.51" font-family="Helvetica,sans-Serif" font-size="10.00">in flight</text>
<polygon fill="#ffffff" stroke="none" points="340.52,-1162.51 340.52,-1189.26 430.27,-1189.26 430.27,-1162.51 340.52,-1162.51"/>
<polygon fill="none" stroke="#444444" stroke-dasharray="5,2" points="340.52,-1162.51 340.52,-1189.26 430.27,-1189.26 430.27,-1162.51 340.52,-1162.51"/>
<text xml:space="preserve" text-anchor="start" x="347.52" y="-1172.51" font-family="Helvetica,sans-Serif" font-size="10.00">pending / gated</text>
<polygon fill="#d1ecf1" stroke="none" stroke-dasharray="5,2" points="436.27,-1162.51 436.27,-1189.26 539.52,-1189.26 539.52,-1162.51 436.27,-1162.51"/>
<polygon fill="none" stroke="#444444" points="436.27,-1162.51 436.27,-1189.26 539.52,-1189.26 539.52,-1162.51 436.27,-1162.51"/>
<text xml:space="preserve" text-anchor="start" x="443.27" y="-1172.51" font-family="Helvetica,sans-Serif" font-size="10.00">recurring (paused)</text>
<polygon fill="#ffe69c" stroke="none" points="545.52,-1162.51 545.52,-1189.26 580.52,-1189.26 580.52,-1162.51 545.52,-1162.51"/>
<polygon fill="none" stroke="#444444" points="545.52,-1162.51 545.52,-1189.26 580.52,-1189.26 580.52,-1162.51 545.52,-1162.51"/>
<text xml:space="preserve" text-anchor="start" x="552.52" y="-1172.51" font-family="Helvetica,sans-Serif" font-size="10.00">goal</text>
</g>
<!-- spacer_L -->
<!-- legend&#45;&gt;spacer_L -->
<!-- spacer_C -->
<!-- legend&#45;&gt;spacer_C -->
<!-- spacer_R -->
<!-- legend&#45;&gt;spacer_R -->
<!-- PLUMBING -->
<g id="node5" class="node">
<title>PLUMBING</title>
<path fill="#ced4da" stroke="#495057" d="M248.79,-1049.31C248.79,-1049.31 95.25,-1049.31 95.25,-1049.31 89.25,-1049.31 83.25,-1043.31 83.25,-1037.31 83.25,-1037.31 83.25,-1010.1 83.25,-1010.1 83.25,-1004.1 89.25,-998.1 95.25,-998.1 95.25,-998.1 248.79,-998.1 248.79,-998.1 254.79,-998.1 260.79,-1004.1 260.79,-1010.1 260.79,-1010.1 260.79,-1037.31 260.79,-1037.31 260.79,-1043.31 254.79,-1049.31 248.79,-1049.31"/>
<text xml:space="preserve" text-anchor="middle" x="172.02" y="-1033.33" font-family="Helvetica,sans-Serif" font-size="10.00">V1 plumbing</text>
<text xml:space="preserve" text-anchor="middle" x="172.02" y="-1020.58" font-family="Helvetica,sans-Serif" font-size="10.00">calibration + trading_strategies</text>
<text xml:space="preserve" text-anchor="middle" x="172.02" y="-1007.83" font-family="Helvetica,sans-Serif" font-size="10.00">(PR #161)</text>
</g>
<!-- spacer_L&#45;&gt;PLUMBING -->
<!-- REFRESH -->
<g id="node7" class="node">
<title>REFRESH</title>
<path fill="#a8d8c0" stroke="#495057" d="M379.16,-842.64C379.16,-842.64 218.88,-842.64 218.88,-842.64 212.88,-842.64 206.88,-836.64 206.88,-830.64 206.88,-830.64 206.88,-816.18 206.88,-816.18 206.88,-810.18 212.88,-804.18 218.88,-804.18 218.88,-804.18 379.16,-804.18 379.16,-804.18 385.16,-804.18 391.16,-810.18 391.16,-816.18 391.16,-816.18 391.16,-830.64 391.16,-830.64 391.16,-836.64 385.16,-842.64 379.16,-842.64"/>
<text xml:space="preserve" text-anchor="middle" x="299.02" y="-826.66" font-family="Helvetica,sans-Serif" font-size="10.00">data refresh → 2026&#45;06&#45;12</text>
<text xml:space="preserve" text-anchor="middle" x="299.02" y="-813.91" font-family="Helvetica,sans-Serif" font-size="10.00">+ fixed circular data/raw symlink</text>
</g>
<!-- spacer_C&#45;&gt;REFRESH -->
<!-- PROMOTE -->
<g id="node13" class="node">
<title>PROMOTE</title>
<path fill="#ffffff" stroke="#adb5bd" stroke-dasharray="5,2" d="M866.16,-355.72C866.16,-355.72 741.88,-355.72 741.88,-355.72 735.88,-355.72 729.88,-349.72 729.88,-343.72 729.88,-343.72 729.88,-329.25 729.88,-329.25 729.88,-323.25 735.88,-317.25 741.88,-317.25 741.88,-317.25 866.16,-317.25 866.16,-317.25 872.16,-317.25 878.16,-323.25 878.16,-329.25 878.16,-329.25 878.16,-343.72 878.16,-343.72 878.16,-349.72 872.16,-355.72 866.16,-355.72"/>
<text xml:space="preserve" text-anchor="middle" x="804.02" y="-339.74" font-family="Helvetica,sans-Serif" font-size="10.00">promote c=0.25+mean</text>
<text xml:space="preserve" text-anchor="middle" x="804.02" y="-326.99" font-family="Helvetica,sans-Serif" font-size="10.00">as headline sizing default</text>
</g>
<!-- spacer_R&#45;&gt;PROMOTE -->
<!-- WAKE -->
<g id="node21" class="node">
<title>WAKE</title>
<path fill="#d1ecf1" stroke="#0c5460" stroke-dasharray="1,5" d="M1009.91,-1042.94C1009.91,-1042.94 854.12,-1042.94 854.12,-1042.94 848.12,-1042.94 842.12,-1036.94 842.12,-1030.94 842.12,-1030.94 842.12,-1016.48 842.12,-1016.48 842.12,-1010.48 848.12,-1004.48 854.12,-1004.48 854.12,-1004.48 1009.91,-1004.48 1009.91,-1004.48 1015.91,-1004.48 1021.91,-1010.48 1021.91,-1016.48 1021.91,-1016.48 1021.91,-1030.94 1021.91,-1030.94 1021.91,-1036.94 1015.91,-1042.94 1009.91,-1042.94"/>
<text xml:space="preserve" text-anchor="middle" x="932.02" y="-1026.96" font-family="Helvetica,sans-Serif" font-size="10.00">hourly heartbeat</text>
<text xml:space="preserve" text-anchor="middle" x="932.02" y="-1014.21" font-family="Helvetica,sans-Serif" font-size="10.00">(cron :07 — disk/subagents/PRs)</text>
</g>
<!-- spacer_R&#45;&gt;WAKE -->
<!-- M001 -->
<g id="node6" class="node">
<title>M001</title>
<path fill="#ced4da" stroke="#495057" d="M248.66,-948.1C248.66,-948.1 133.38,-948.1 133.38,-948.1 127.38,-948.1 121.37,-942.1 121.37,-936.1 121.37,-936.1 121.37,-908.89 121.37,-908.89 121.37,-902.89 127.37,-896.89 133.38,-896.89 133.38,-896.89 248.66,-896.89 248.66,-896.89 254.66,-896.89 260.66,-902.89 260.66,-908.89 260.66,-908.89 260.66,-936.1 260.66,-936.1 260.66,-942.1 254.66,-948.1 248.66,-948.1"/>
<text xml:space="preserve" text-anchor="middle" x="191.02" y="-932.12" font-family="Helvetica,sans-Serif" font-size="10.00">_001 cell5 half&#45;Kelly</text>
<text xml:space="preserve" text-anchor="middle" x="191.02" y="-919.37" font-family="Helvetica,sans-Serif" font-size="10.00">+6.7% vs NDX +23%</text>
<text xml:space="preserve" text-anchor="middle" x="191.02" y="-906.62" font-family="Helvetica,sans-Serif" font-size="10.00">(132&#45;day gap confound)</text>
</g>
<!-- PLUMBING&#45;&gt;M001 -->
<g id="edge8" class="edge">
<title>PLUMBING&#45;&gt;M001</title>
<path fill="none" stroke="#888888" d="M176.81,-997.67C179.02,-986.16 181.68,-972.28 184.09,-959.66"/>
<polygon fill="#888888" stroke="#888888" points="187.5,-960.49 185.94,-950.01 180.62,-959.17 187.5,-960.49"/>
</g>
<!-- M001&#45;&gt;REFRESH -->
<g id="edge9" class="edge">
<title>M001&#45;&gt;REFRESH</title>
<path fill="none" stroke="#888888" stroke-dasharray="5,2" d="M218.83,-896.49C234.55,-882.37 254.17,-864.73 270.06,-850.44"/>
<polygon fill="#888888" stroke="#888888" points="272.24,-853.19 277.34,-843.9 267.56,-847.98 272.24,-853.19"/>
</g>
<!-- GAPEVAL -->
<g id="node18" class="node">
<title>GAPEVAL</title>
<path fill="#ffffff" stroke="#adb5bd" stroke-dasharray="5,2" d="M593.04,-842.64C593.04,-842.64 435,-842.64 435,-842.64 429,-842.64 423,-836.64 423,-830.64 423,-830.64 423,-816.18 423,-816.18 423,-810.18 429,-804.18 435,-804.18 435,-804.18 593.04,-804.18 593.04,-804.18 599.04,-804.18 605.04,-810.18 605.04,-816.18 605.04,-816.18 605.04,-830.64 605.04,-830.64 605.04,-836.64 599.04,-842.64 593.04,-842.64"/>
<text xml:space="preserve" text-anchor="middle" x="514.02" y="-826.66" font-family="Helvetica,sans-Serif" font-size="10.00">signal&#45;gap&#45;aware eval harness</text>
<text xml:space="preserve" text-anchor="middle" x="514.02" y="-813.91" font-family="Helvetica,sans-Serif" font-size="10.00">(invested&#45;days / cash&#45;adj bench)</text>
</g>
<!-- M001&#45;&gt;GAPEVAL -->
<g id="edge22" class="edge">
<title>M001&#45;&gt;GAPEVAL</title>
<path fill="none" stroke="#888888" stroke-dasharray="5,2" d="M260.99,-911.96C304.37,-904.88 360.82,-893.54 409.02,-876.89 430.64,-869.42 453.48,-858.42 472.32,-848.41"/>
<polygon fill="#888888" stroke="#888888" points="473.88,-851.54 481.01,-843.7 470.55,-845.39 473.88,-851.54"/>
</g>
<!-- INFER -->
<g id="node8" class="node">
<title>INFER</title>
<path fill="#a8d8c0" stroke="#495057" d="M376.54,-754.18C376.54,-754.18 233.5,-754.18 233.5,-754.18 227.5,-754.18 221.5,-748.18 221.5,-742.18 221.5,-742.18 221.5,-727.72 221.5,-727.72 221.5,-721.72 227.5,-715.72 233.5,-715.72 233.5,-715.72 376.54,-715.72 376.54,-715.72 382.54,-715.72 388.54,-721.72 388.54,-727.72 388.54,-727.72 388.54,-742.18 388.54,-742.18 388.54,-748.18 382.54,-754.18 376.54,-754.18"/>
<text xml:space="preserve" text-anchor="middle" x="305.02" y="-738.2" font-family="Helvetica,sans-Serif" font-size="10.00">infer_fresh_predictions</text>
<text xml:space="preserve" text-anchor="middle" x="305.02" y="-725.45" font-family="Helvetica,sans-Serif" font-size="10.00">(no retrain; self&#45;check 1.5e&#45;8)</text>
</g>
<!-- REFRESH&#45;&gt;INFER -->
<g id="edge10" class="edge">
<title>REFRESH&#45;&gt;INFER</title>
<path fill="none" stroke="#888888" d="M300.29,-804.07C301.06,-793.03 302.05,-778.7 302.93,-766.03"/>
<polygon fill="#888888" stroke="#888888" points="306.42,-766.29 303.62,-756.07 299.44,-765.8 306.42,-766.29"/>
</g>
<!-- M002 -->
<g id="node9" class="node">
<title>M002</title>
<path fill="#a8d8c0" stroke="#495057" d="M366.79,-665.72C366.79,-665.72 243.25,-665.72 243.25,-665.72 237.25,-665.72 231.25,-659.72 231.25,-653.72 231.25,-653.72 231.25,-626.51 231.25,-626.51 231.25,-620.51 237.25,-614.51 243.25,-614.51 243.25,-614.51 366.79,-614.51 366.79,-614.51 372.79,-614.51 378.79,-620.51 378.79,-626.51 378.79,-626.51 378.79,-653.72 378.79,-653.72 378.79,-659.72 372.79,-665.72 366.79,-665.72"/>
<text xml:space="preserve" text-anchor="middle" x="305.02" y="-649.74" font-family="Helvetica,sans-Serif" font-size="10.00">_002 fresh&#45;OOS half&#45;Kelly</text>
<text xml:space="preserve" text-anchor="middle" x="305.02" y="-636.99" font-family="Helvetica,sans-Serif" font-size="10.00">+9.0% vs NDX +21.6%</text>
<text xml:space="preserve" text-anchor="middle" x="305.02" y="-624.24" font-family="Helvetica,sans-Serif" font-size="10.00">(PR #162)</text>
</g>
<!-- INFER&#45;&gt;M002 -->
<g id="edge11" class="edge">
<title>INFER&#45;&gt;M002</title>
<path fill="none" stroke="#888888" d="M305.02,-715.61C305.02,-704.66 305.02,-690.36 305.02,-677.23"/>
<polygon fill="#888888" stroke="#888888" points="308.52,-677.61 305.02,-667.61 301.52,-677.61 308.52,-677.61"/>
</g>
<!-- ROLLING -->
<g id="node17" class="node">
<title>ROLLING</title>
<path fill="#ffffff" stroke="#adb5bd" stroke-dasharray="5,2" d="M689.29,-558.14C689.29,-558.14 538.75,-558.14 538.75,-558.14 532.75,-558.14 526.75,-552.14 526.75,-546.14 526.75,-546.14 526.75,-531.68 526.75,-531.68 526.75,-525.68 532.75,-519.68 538.75,-519.68 538.75,-519.68 689.29,-519.68 689.29,-519.68 695.29,-519.68 701.29,-525.68 701.29,-531.68 701.29,-531.68 701.29,-546.14 701.29,-546.14 701.29,-552.14 695.29,-558.14 689.29,-558.14"/>
<text xml:space="preserve" text-anchor="middle" x="614.02" y="-542.16" font-family="Helvetica,sans-Serif" font-size="10.00">rolling monthly fresh&#45;OOS</text>
<text xml:space="preserve" text-anchor="middle" x="614.02" y="-529.41" font-family="Helvetica,sans-Serif" font-size="10.00">series (re&#45;score as cache ages)</text>
</g>
<!-- INFER&#45;&gt;ROLLING -->
<g id="edge21" class="edge">
<title>INFER&#45;&gt;ROLLING</title>
<path fill="none" stroke="#888888" stroke-dasharray="5,2" d="M334.65,-715.34C390.71,-680.14 512.3,-603.79 574.95,-564.44"/>
<polygon fill="#888888" stroke="#888888" points="576.59,-567.54 583.2,-559.26 572.87,-561.61 576.59,-567.54"/>
</g>
<!-- M003 -->
<g id="node10" class="node">
<title>M003</title>
<path fill="#a8d8c0" stroke="#495057" d="M378.79,-564.51C378.79,-564.51 231.25,-564.51 231.25,-564.51 225.25,-564.51 219.25,-558.51 219.25,-552.51 219.25,-552.51 219.25,-525.3 219.25,-525.3 219.25,-519.3 225.25,-513.3 231.25,-513.3 231.25,-513.3 378.79,-513.3 378.79,-513.3 384.79,-513.3 390.79,-519.3 390.79,-525.3 390.79,-525.3 390.79,-552.51 390.79,-552.51 390.79,-558.51 384.79,-564.51 378.79,-564.51"/>
<text xml:space="preserve" text-anchor="middle" x="305.02" y="-548.53" font-family="Helvetica,sans-Serif" font-size="10.00">_003 sizing sweep</text>
<text xml:space="preserve" text-anchor="middle" x="305.02" y="-535.78" font-family="Helvetica,sans-Serif" font-size="10.00">c=0.25+mean +25.4% &gt; NDX</text>
<text xml:space="preserve" text-anchor="middle" x="305.02" y="-523.03" font-family="Helvetica,sans-Serif" font-size="10.00">p_low HURTS (PR #163)</text>
</g>
<!-- M002&#45;&gt;M003 -->
<g id="edge12" class="edge">
<title>M002&#45;&gt;M003</title>
<path fill="none" stroke="#888888" d="M305.02,-614.08C305.02,-602.57 305.02,-588.69 305.02,-576.07"/>
<polygon fill="#888888" stroke="#888888" points="308.52,-576.45 305.02,-566.45 301.52,-576.45 308.52,-576.45"/>
</g>
<!-- M004 -->
<g id="node11" class="node">
<title>M004</title>
<path fill="#a8d8c0" stroke="#495057" d="M378.41,-463.3C378.41,-463.3 243.62,-463.3 243.62,-463.3 237.62,-463.3 231.62,-457.3 231.62,-451.3 231.62,-451.3 231.62,-424.09 231.62,-424.09 231.62,-418.09 237.62,-412.09 243.62,-412.09 243.62,-412.09 378.41,-412.09 378.41,-412.09 384.41,-412.09 390.41,-418.09 390.41,-424.09 390.41,-424.09 390.41,-451.3 390.41,-451.3 390.41,-457.3 384.41,-463.3 378.41,-463.3"/>
<text xml:space="preserve" text-anchor="middle" x="311.02" y="-447.32" font-family="Helvetica,sans-Serif" font-size="10.00">_004 best&#45;agent&#45;cell survey</text>
<text xml:space="preserve" text-anchor="middle" x="311.02" y="-434.57" font-family="Helvetica,sans-Serif" font-size="10.00">5 cells × {c=.25,.5}</text>
<text xml:space="preserve" text-anchor="middle" x="311.02" y="-421.82" font-family="Helvetica,sans-Serif" font-size="10.00">only cell&#45;5 trades</text>
</g>
<!-- M003&#45;&gt;M004 -->
<g id="edge13" class="edge">
<title>M003&#45;&gt;M004</title>
<path fill="none" stroke="#888888" d="M306.53,-512.87C307.23,-501.36 308.07,-487.48 308.83,-474.86"/>
<polygon fill="#888888" stroke="#888888" points="312.3,-475.43 309.42,-465.23 305.32,-475 312.3,-475.43"/>
</g>
<!-- M003&#45;&gt;PROMOTE -->
<g id="edge15" class="edge">
<title>M003&#45;&gt;PROMOTE</title>
<path fill="none" stroke="#5a3e9e" d="M367.46,-512.83C465.16,-473.58 652.73,-398.25 746.99,-360.39"/>
<polygon fill="#5a3e9e" stroke="#5a3e9e" points="748.08,-363.73 756.05,-356.75 745.47,-357.23 748.08,-363.73"/>
</g>
<!-- M004DOC -->
<g id="node12" class="node">
<title>M004DOC</title>
<path fill="#d1ecf1" stroke="#0c5460" d="M378.79,-354.49C378.79,-354.49 243.25,-354.49 243.25,-354.49 237.25,-354.49 231.25,-348.49 231.25,-342.49 231.25,-342.49 231.25,-330.49 231.25,-330.49 231.25,-324.49 237.25,-318.49 243.25,-318.49 243.25,-318.49 378.79,-318.49 378.79,-318.49 384.79,-318.49 390.79,-324.49 390.79,-330.49 390.79,-330.49 390.79,-342.49 390.79,-342.49 390.79,-348.49 384.79,-354.49 378.79,-354.49"/>
<text xml:space="preserve" text-anchor="middle" x="311.02" y="-333.36" font-family="Helvetica,sans-Serif" font-size="10.00">_004 memo + registry + PR</text>
</g>
<!-- M004&#45;&gt;M004DOC -->
<g id="edge14" class="edge">
<title>M004&#45;&gt;M004DOC</title>
<path fill="none" stroke="#888888" d="M311.02,-411.66C311.02,-397.76 311.02,-380.41 311.02,-365.99"/>
<polygon fill="#888888" stroke="#888888" points="314.52,-366.22 311.02,-356.22 307.52,-366.22 314.52,-366.22"/>
</g>
<!-- M004&#45;&gt;PROMOTE -->
<g id="edge16" class="edge">
<title>M004&#45;&gt;PROMOTE</title>
<path fill="none" stroke="#5a3e9e" d="M390.89,-415.22C395.66,-414.12 400.4,-413.06 405.02,-412.09 542.88,-383.11 580.5,-392.63 718.02,-362.09 722.33,-361.13 726.75,-360.08 731.19,-358.98"/>
<polygon fill="#5a3e9e" stroke="#5a3e9e" points="731.97,-362.39 740.78,-356.5 730.22,-355.61 731.97,-362.39"/>
</g>
<!-- BREAKEVEN -->
<g id="node14" class="node">
<title>BREAKEVEN</title>
<path fill="#a8d8c0" stroke="#495057" d="M693.16,-362.09C693.16,-362.09 544.88,-362.09 544.88,-362.09 538.88,-362.09 532.88,-356.09 532.88,-350.09 532.88,-350.09 532.88,-322.88 532.88,-322.88 532.88,-316.88 538.88,-310.88 544.88,-310.88 544.88,-310.88 693.16,-310.88 693.16,-310.88 699.16,-310.88 705.16,-316.88 705.16,-322.88 705.16,-322.88 705.16,-350.09 705.16,-350.09 705.16,-356.09 699.16,-362.09 693.16,-362.09"/>
<text xml:space="preserve" text-anchor="middle" x="619.02" y="-346.11" font-family="Helvetica,sans-Serif" font-size="10.00">FINDING: base&#45;rate gate</text>
<text xml:space="preserve" text-anchor="middle" x="619.02" y="-333.36" font-family="Helvetica,sans-Serif" font-size="10.00">4/5 best agent cells = 0 trades</text>
<text xml:space="preserve" text-anchor="middle" x="619.02" y="-320.61" font-family="Helvetica,sans-Serif" font-size="10.00">(calibrated p never &gt; 1/3)</text>
</g>
<!-- M004&#45;&gt;BREAKEVEN -->
<g id="edge17" class="edge">
<title>M004&#45;&gt;BREAKEVEN</title>
<path fill="none" stroke="#d9534f" d="M388.74,-411.66C431.88,-397.77 485.69,-380.43 530.45,-366.01"/>
<polygon fill="#d9534f" stroke="#d9534f" points="531.44,-369.37 539.88,-362.98 529.29,-362.71 531.44,-369.37"/>
</g>
<!-- IDFIX -->
<g id="node19" class="node">
<title>IDFIX</title>
<path fill="#ffffff" stroke="#adb5bd" stroke-dasharray="5,2" d="M544.66,-254.51C544.66,-254.51 435.38,-254.51 435.38,-254.51 429.38,-254.51 423.38,-248.51 423.38,-242.51 423.38,-242.51 423.38,-228.05 423.38,-228.05 423.38,-222.05 429.38,-216.05 435.38,-216.05 435.38,-216.05 544.66,-216.05 544.66,-216.05 550.66,-216.05 556.66,-222.05 556.66,-228.05 556.66,-228.05 556.66,-242.51 556.66,-242.51 556.66,-248.51 550.66,-254.51 544.66,-254.51"/>
<text xml:space="preserve" text-anchor="middle" x="490.02" y="-238.53" font-family="Helvetica,sans-Serif" font-size="10.00">registry id zero&#45;pad fix</text>
<text xml:space="preserve" text-anchor="middle" x="490.02" y="-225.78" font-family="Helvetica,sans-Serif" font-size="10.00">(fold into next PR)</text>
</g>
<!-- M004DOC&#45;&gt;IDFIX -->
<g id="edge23" class="edge">
<title>M004DOC&#45;&gt;IDFIX</title>
<path fill="none" stroke="#888888" stroke-dasharray="5,2" d="M342.2,-318.2C371.03,-302.22 414.17,-278.32 446.41,-260.45"/>
<polygon fill="#888888" stroke="#888888" points="448.09,-263.52 455.14,-255.61 444.7,-257.39 448.09,-263.52"/>
</g>
<!-- GOAL -->
<g id="node20" class="node">
<title>GOAL</title>
<path fill="#ffe69c" stroke="#856404" stroke-width="2" d="M893.16,-58.46C893.16,-58.46 732.88,-58.46 732.88,-58.46 726.88,-58.46 720.88,-52.46 720.88,-46.46 720.88,-46.46 720.88,-32 720.88,-32 720.88,-26 726.88,-20 732.88,-20 732.88,-20 893.16,-20 893.16,-20 899.16,-20 905.16,-26 905.16,-32 905.16,-32 905.16,-46.46 905.16,-46.46 905.16,-52.46 899.16,-58.46 893.16,-58.46"/>
<text xml:space="preserve" text-anchor="middle" x="813.02" y="-42.48" font-family="Helvetica,sans-Serif" font-size="10.00">GOAL: agent&#45;driven strategy that</text>
<text xml:space="preserve" text-anchor="middle" x="813.02" y="-29.73" font-family="Helvetica,sans-Serif" font-size="10.00">beats passive OOS across cells</text>
</g>
<!-- PROMOTE&#45;&gt;GOAL -->
<g id="edge24" class="edge">
<title>PROMOTE&#45;&gt;GOAL</title>
<path fill="none" stroke="#5a3e9e" d="M822.37,-316.77C834.82,-302.69 850.21,-282.22 857.02,-260.88 877.61,-196.34 876.16,-173.44 857.02,-108.46 852.82,-94.2 844.61,-80.11 836.41,-68.47"/>
<polygon fill="#5a3e9e" stroke="#5a3e9e" points="839.29,-66.47 830.52,-60.53 833.67,-70.65 839.29,-66.47"/>
</g>
<!-- RANKSIZE -->
<g id="node15" class="node">
<title>RANKSIZE</title>
<path fill="#a8d8c0" stroke="#495057" d="M812.04,-260.88C812.04,-260.88 594,-260.88 594,-260.88 588,-260.88 582,-254.88 582,-248.88 582,-248.88 582,-221.67 582,-221.67 582,-215.67 588,-209.67 594,-209.67 594,-209.67 812.04,-209.67 812.04,-209.67 818.04,-209.67 824.04,-215.67 824.04,-221.67 824.04,-221.67 824.04,-248.88 824.04,-248.88 824.04,-254.88 818.04,-260.88 812.04,-260.88"/>
<text xml:space="preserve" text-anchor="middle" x="703.02" y="-244.9" font-family="Helvetica,sans-Serif" font-size="10.00">_005 V1.2 rank&#45;sizing — rank/equal</text>
<text xml:space="preserve" text-anchor="middle" x="703.02" y="-232.15" font-family="Helvetica,sans-Serif" font-size="10.00">deploys the signal: 4/5 cells BEAT</text>
<text xml:space="preserve" text-anchor="middle" x="703.02" y="-219.4" font-family="Helvetica,sans-Serif" font-size="10.00">index OOS (ndx40 +61.5%, sp500_20 +58%)</text>
</g>
<!-- BREAKEVEN&#45;&gt;RANKSIZE -->
<g id="edge18" class="edge">
<title>BREAKEVEN&#45;&gt;RANKSIZE</title>
<path fill="none" stroke="#d9534f" d="M640.22,-310.45C650.66,-298.11 663.4,-283.06 674.68,-269.75"/>
<polygon fill="#d9534f" stroke="#d9534f" points="677.06,-272.35 680.85,-262.46 671.72,-267.83 677.06,-272.35"/>
</g>
<!-- BREAKEVEN&#45;&gt;GOAL -->
<g id="edge26" class="edge">
<title>BREAKEVEN&#45;&gt;GOAL</title>
<path fill="none" stroke="#888888" stroke-dasharray="5,2" d="M699.17,-310.46C759.55,-291.22 832.69,-266.94 837.02,-260.88 858.37,-231.01 834.63,-123.32 821.1,-70.24"/>
<polygon fill="#888888" stroke="#888888" points="824.51,-69.45 818.61,-60.65 817.74,-71.21 824.51,-69.45"/>
</g>
<!-- ROLLVAL -->
<g id="node16" class="node">
<title>ROLLVAL</title>
<path fill="#d4edda" stroke="#155724" d="M800.91,-159.67C800.91,-159.67 627.12,-159.67 627.12,-159.67 621.12,-159.67 615.12,-153.67 615.12,-147.67 615.12,-147.67 615.12,-120.46 615.12,-120.46 615.12,-114.46 621.12,-108.46 627.12,-108.46 627.12,-108.46 800.91,-108.46 800.91,-108.46 806.91,-108.46 812.91,-114.46 812.91,-120.46 812.91,-120.46 812.91,-147.67 812.91,-147.67 812.91,-153.67 806.91,-159.67 800.91,-159.67"/>
<text xml:space="preserve" text-anchor="middle" x="714.02" y="-143.69" font-family="Helvetica,sans-Serif" font-size="10.00">NEXT: rolling multi&#45;window</text>
<text xml:space="preserve" text-anchor="middle" x="714.02" y="-130.94" font-family="Helvetica,sans-Serif" font-size="10.00">validation (gate to any</text>
<text xml:space="preserve" text-anchor="middle" x="714.02" y="-118.19" font-family="Helvetica,sans-Serif" font-size="10.00">alpha claim — single windows now)</text>
</g>
<!-- RANKSIZE&#45;&gt;ROLLVAL -->
<g id="edge19" class="edge">
<title>RANKSIZE&#45;&gt;ROLLVAL</title>
<path fill="none" stroke="#d9534f" d="M705.8,-209.24C707.07,-197.73 708.61,-183.85 710.01,-171.23"/>
<polygon fill="#d9534f" stroke="#d9534f" points="713.45,-171.92 711.08,-161.6 706.5,-171.15 713.45,-171.92"/>
</g>
<!-- ROLLVAL&#45;&gt;GOAL -->
<g id="edge20" class="edge">
<title>ROLLVAL&#45;&gt;GOAL</title>
<path fill="none" stroke="#d9534f" d="M740.55,-108.19C754.12,-95.47 770.64,-79.97 784.48,-66.99"/>
<polygon fill="#d9534f" stroke="#d9534f" points="786.7,-69.71 791.6,-60.32 781.91,-64.61 786.7,-69.71"/>
</g>
<!-- ROLLING&#45;&gt;GOAL -->
<g id="edge25" class="edge">
<title>ROLLING&#45;&gt;GOAL</title>
<path fill="none" stroke="#888888" stroke-dasharray="5,2" d="M674.27,-519.26C740.97,-495.02 845.13,-445.57 891.02,-362.09 915.48,-317.59 927.02,-242.96 870.02,-108.46 863.64,-93.4 852.77,-79.11 842.23,-67.54"/>
<polygon fill="#888888" stroke="#888888" points="844.79,-65.16 835.35,-60.35 839.73,-70 844.79,-65.16"/>
</g>
</g>
</svg>
