<?xml version="1.0" encoding="UTF-8" standalone="no"?>
<!DOCTYPE svg PUBLIC "-//W3C//DTD SVG 1.1//EN"
 "http://www.w3.org/Graphics/SVG/1.1/DTD/svg11.dtd">
<!-- Generated by graphviz version 14.1.5 (0)
 -->
<!-- Title: tasks Pages: 1 -->
<svg width="2169pt" height="472pt"
 viewBox="0.00 0.00 2169.00 472.00" xmlns="http://www.w3.org/2000/svg" xmlns:xlink="http://www.w3.org/1999/xlink">
<g id="graph0" class="graph" transform="scale(1 1) rotate(0) translate(4 467.95)">
<title>tasks</title>
<polygon fill="white" stroke="none" points="-4,4 -4,-467.95 2165,-467.95 2165,4 -4,4"/>
<text xml:space="preserve" text-anchor="middle" x="1080.5" y="-447.6" font-family="Helvetica,sans-Serif" font-weight="bold" font-size="13.00">agent&#45;driven&#45;investment — pending task dependencies (2026&#45;06&#45;08 23:55 IST)</text>
<text xml:space="preserve" text-anchor="middle" x="1080.5" y="-431.1" font-family="Helvetica,sans-Serif" font-weight="bold" font-size="13.00">after #246 audit (L1 tail is legacy&#45;resume fallback, not dead code)</text>
<g id="clust2" class="cluster">
<title>cluster_done</title>
<polygon fill="#fafafa" stroke="#cccccc" points="8,-184.56 8,-293.33 543,-293.33 543,-184.56 8,-184.56"/>
<text xml:space="preserve" text-anchor="middle" x="275.5" y="-278.88" font-family="Helvetica,sans-Serif" font-weight="bold" font-size="11.00">Recently merged (context)</text>
</g>
<g id="clust3" class="cluster">
<title>cluster_runner</title>
<path fill="white" stroke="#888888" d="M706,-25.33C706,-25.33 969,-25.33 969,-25.33 975,-25.33 981,-31.33 981,-37.33 981,-37.33 981,-282.2 981,-282.2 981,-288.2 975,-294.2 969,-294.2 969,-294.2 706,-294.2 706,-294.2 700,-294.2 694,-288.2 694,-282.2 694,-282.2 694,-37.33 694,-37.33 694,-31.33 700,-25.33 706,-25.33"/>
<text xml:space="preserve" text-anchor="middle" x="837.5" y="-279.75" font-family="Helvetica,sans-Serif" font-weight="bold" font-size="11.00">Runner + canonical&#45;CSV output consistency</text>
</g>
<g id="clust4" class="cluster">
<title>cluster_data</title>
<path fill="white" stroke="#888888" d="M1001,-183.68C1001,-183.68 1125,-183.68 1125,-183.68 1131,-183.68 1137,-189.68 1137,-195.68 1137,-195.68 1137,-282.2 1137,-282.2 1137,-288.2 1131,-294.2 1125,-294.2 1125,-294.2 1001,-294.2 1001,-294.2 995,-294.2 989,-288.2 989,-282.2 989,-282.2 989,-195.68 989,-195.68 989,-189.68 995,-183.68 1001,-183.68"/>
<text xml:space="preserve" text-anchor="middle" x="1063" y="-279.75" font-family="Helvetica,sans-Serif" font-weight="bold" font-size="11.00">Data pipeline</text>
</g>
<g id="clust5" class="cluster">
<title>cluster_worktree</title>
<path fill="white" stroke="#888888" d="M2013,-20.33C2013,-20.33 2141,-20.33 2141,-20.33 2147,-20.33 2153,-26.33 2153,-32.33 2153,-32.33 2153,-282.2 2153,-282.2 2153,-288.2 2147,-294.2 2141,-294.2 2141,-294.2 2013,-294.2 2013,-294.2 2007,-294.2 2001,-288.2 2001,-282.2 2001,-282.2 2001,-32.33 2001,-32.33 2001,-26.33 2007,-20.33 2013,-20.33"/>
<text xml:space="preserve" text-anchor="middle" x="2077" y="-279.75" font-family="Helvetica,sans-Serif" font-weight="bold" font-size="11.00">Worktree cleanup</text>
</g>
<g id="clust6" class="cluster">
<title>cluster_cleanup</title>
<path fill="white" stroke="#888888" d="M1157,-183.68C1157,-183.68 1431,-183.68 1431,-183.68 1437,-183.68 1443,-189.68 1443,-195.68 1443,-195.68 1443,-282.2 1443,-282.2 1443,-288.2 1437,-294.2 1431,-294.2 1431,-294.2 1157,-294.2 1157,-294.2 1151,-294.2 1145,-288.2 1145,-282.2 1145,-282.2 1145,-195.68 1145,-195.68 1145,-189.68 1151,-183.68 1157,-183.68"/>
<text xml:space="preserve" text-anchor="middle" x="1294" y="-279.75" font-family="Helvetica,sans-Serif" font-weight="bold" font-size="11.00">Cleanup polish (low priority)</text>
</g>
<g id="clust7" class="cluster">
<title>cluster_recurring</title>
<path fill="white" stroke="#888888" d="M1463,-188.68C1463,-188.68 1601,-188.68 1601,-188.68 1607,-188.68 1613,-194.68 1613,-200.68 1613,-200.68 1613,-277.2 1613,-277.2 1613,-283.2 1607,-289.2 1601,-289.2 1601,-289.2 1463,-289.2 1463,-289.2 1457,-289.2 1451,-283.2 1451,-277.2 1451,-277.2 1451,-200.68 1451,-200.68 1451,-194.68 1457,-188.68 1463,-188.68"/>
<text xml:space="preserve" text-anchor="middle" x="1532" y="-274.75" font-family="Helvetica,sans-Serif" font-weight="bold" font-size="11.00">Scheduled tasks / loops</text>
</g>
<g id="clust8" class="cluster">
<title>cluster_goals</title>
<polygon fill="#fffcec" stroke="#cc9933" points="1237,-8 1237,-143.18 1982,-143.18 1982,-8 1237,-8"/>
<text xml:space="preserve" text-anchor="middle" x="1609.5" y="-128.73" font-family="Helvetica,sans-Serif" font-weight="bold" font-size="11.00">Goals</text>
</g>
<!-- legend -->
<g id="node1" class="node">
<title>legend</title>
<path fill="lightgrey" stroke="none" d="M1533.88,-422.95C1533.88,-422.95 916.12,-422.95 916.12,-422.95 910.12,-422.95 904.12,-416.95 904.12,-410.95 904.12,-410.95 904.12,-354.7 904.12,-354.7 904.12,-348.7 910.12,-342.7 916.12,-342.7 916.12,-342.7 1533.88,-342.7 1533.88,-342.7 1539.88,-342.7 1545.88,-348.7 1545.88,-354.7 1545.88,-354.7 1545.88,-410.95 1545.88,-410.95 1545.88,-416.95 1539.88,-422.95 1533.88,-422.95"/>
<polygon fill="#f0f0f0" stroke="none" points="904.12,-396.2 904.12,-422.95 1545.88,-422.95 1545.88,-396.2 904.12,-396.2"/>
<polygon fill="none" stroke="black" points="904.12,-396.2 904.12,-422.95 1545.88,-422.95 1545.88,-396.2 904.12,-396.2"/>
<text xml:space="preserve" text-anchor="start" x="1204.38" y="-407.45" font-family="Helvetica,sans-Serif" font-weight="bold" font-size="10.00">Legend</text>
<polygon fill="#a4e9a4" stroke="none" points="904.12,-369.45 904.12,-396.2 997.58,-396.2 997.58,-369.45 904.12,-369.45"/>
<polygon fill="none" stroke="black" points="904.12,-369.45 904.12,-396.2 997.58,-396.2 997.58,-369.45 904.12,-369.45"/>
<text xml:space="preserve" text-anchor="start" x="925.35" y="-379.45" font-family="Helvetica,sans-Serif" font-size="10.00">actionable</text>
<polygon fill="#a3c8e8" stroke="none" points="997.58,-369.45 997.58,-396.2 1077.54,-396.2 1077.54,-369.45 997.58,-369.45"/>
<polygon fill="none" stroke="black" points="997.58,-369.45 997.58,-396.2 1077.54,-396.2 1077.54,-369.45 997.58,-369.45"/>
<text xml:space="preserve" text-anchor="start" x="1018.81" y="-379.45" font-family="Helvetica,sans-Serif" font-size="10.00">in&#45;flight</text>
<polygon fill="#ffd966" stroke="none" points="1077.54,-369.45 1077.54,-396.2 1141,-396.2 1141,-369.45 1077.54,-369.45"/>
<polygon fill="none" stroke="black" points="1077.54,-369.45 1077.54,-396.2 1141,-396.2 1141,-369.45 1077.54,-369.45"/>
<text xml:space="preserve" text-anchor="start" x="1098.77" y="-379.45" font-family="Helvetica,sans-Serif" font-size="10.00">goal</text>
<polygon fill="#ffffff" stroke="none" points="1141,-369.45 1141,-396.2 1304.96,-396.2 1304.96,-369.45 1141,-369.45"/>
<polygon fill="none" stroke="black" points="1141,-369.45 1141,-396.2 1304.96,-396.2 1304.96,-369.45 1141,-369.45"/>
<text xml:space="preserve" text-anchor="start" x="1162.23" y="-379.45" font-family="Helvetica,sans-Serif" font-size="10.00">pending / gated (dashed)</text>
<polygon fill="#cccccc" stroke="none" points="1304.96,-369.45 1304.96,-396.2 1417.92,-396.2 1417.92,-369.45 1304.96,-369.45"/>
<polygon fill="none" stroke="black" points="1304.96,-369.45 1304.96,-396.2 1417.92,-396.2 1417.92,-369.45 1304.96,-369.45"/>
<text xml:space="preserve" text-anchor="start" x="1326.19" y="-379.45" font-family="Helvetica,sans-Serif" font-size="10.00">done / merged</text>
<polygon fill="#a3c8e8" stroke="none" points="1417.92,-369.45 1417.92,-396.2 1545.88,-396.2 1545.88,-369.45 1417.92,-369.45"/>
<polygon fill="none" stroke="black" points="1417.92,-369.45 1417.92,-396.2 1545.88,-396.2 1545.88,-369.45 1417.92,-369.45"/>
<text xml:space="preserve" text-anchor="start" x="1439.15" y="-379.45" font-family="Helvetica,sans-Serif" font-size="10.00">recurring (dotted)</text>
<polygon fill="#f8f8f8" stroke="none" points="904.12,-342.7 904.12,-369.45 1545.88,-369.45 1545.88,-342.7 904.12,-342.7"/>
<polygon fill="none" stroke="black" points="904.12,-342.7 904.12,-369.45 1545.88,-369.45 1545.88,-342.7 904.12,-342.7"/>
<text xml:space="preserve" text-anchor="start" x="911.12" y="-352.7" font-family="Helvetica,sans-Serif" font-size="10.00">solid edge = hard dep · dashed = soft / &quot;surfaced by&quot; · red = critical path · green = clean&#45;memo path · purple = data correctness</text>
</g>
<!-- v14p1 -->
<g id="node2" class="node">
<title>v14p1</title>
<path fill="#cccccc" stroke="black" d="M78.42,-242.33C78.42,-242.33 27.58,-242.33 27.58,-242.33 21.58,-242.33 15.58,-236.33 15.58,-230.33 15.58,-230.33 15.58,-204.56 15.58,-204.56 15.58,-198.56 21.58,-192.56 27.58,-192.56 27.58,-192.56 78.42,-192.56 78.42,-192.56 84.42,-192.56 90.42,-198.56 90.42,-204.56 90.42,-204.56 90.42,-230.33 90.42,-230.33 90.42,-236.33 84.42,-242.33 78.42,-242.33"/>
<text xml:space="preserve" text-anchor="middle" x="53" y="-227.07" font-family="Helvetica,sans-Serif" font-size="10.00">V1.4 P1</text>
<text xml:space="preserve" text-anchor="middle" x="53" y="-214.32" font-family="Helvetica,sans-Serif" font-size="10.00">L1 fallback</text>
<text xml:space="preserve" text-anchor="middle" x="53" y="-201.57" font-family="Helvetica,sans-Serif" font-size="10.00">PR #135</text>
</g>
<!-- legend&#45;&gt;v14p1 -->
<!-- t251 -->
<g id="node7" class="node">
<title>t251</title>
<path fill="#cccccc" stroke="black" d="M961.42,-243.2C961.42,-243.2 862.58,-243.2 862.58,-243.2 856.58,-243.2 850.58,-237.2 850.58,-231.2 850.58,-231.2 850.58,-203.68 850.58,-203.68 850.58,-197.68 856.58,-191.68 862.58,-191.68 862.58,-191.68 961.42,-191.68 961.42,-191.68 967.42,-191.68 973.42,-197.68 973.42,-203.68 973.42,-203.68 973.42,-231.2 973.42,-231.2 973.42,-237.2 967.42,-243.2 961.42,-243.2"/>
<text xml:space="preserve" text-anchor="start" x="861.38" y="-228.94" font-family="Helvetica,sans-Serif" font-weight="bold" font-size="10.00">#251</text>
<text xml:space="preserve" text-anchor="start" x="889.88" y="-228.94" font-family="Helvetica,sans-Serif" font-size="10.00"> BUG (merged)</text>
<text xml:space="preserve" text-anchor="start" x="868.5" y="-218.94" font-family="Helvetica,sans-Serif" font-size="10.00">metrics.json::loop</text>
<text xml:space="preserve" text-anchor="start" x="873.38" y="-208.94" font-family="Helvetica,sans-Serif" font-size="10.00">metadata unset</text>
<text xml:space="preserve" text-anchor="start" x="861.75" y="-198.94" font-family="Helvetica,sans-Serif" font-size="10.00">(agent_file_protocol)</text>
</g>
<!-- legend&#45;&gt;t251 -->
<!-- t244 -->
<g id="node10" class="node">
<title>t244</title>
<path fill="#cccccc" stroke="black" d="M1116.92,-243.2C1116.92,-243.2 1009.08,-243.2 1009.08,-243.2 1003.08,-243.2 997.08,-237.2 997.08,-231.2 997.08,-231.2 997.08,-203.68 997.08,-203.68 997.08,-197.68 1003.08,-191.68 1009.08,-191.68 1009.08,-191.68 1116.92,-191.68 1116.92,-191.68 1122.92,-191.68 1128.92,-197.68 1128.92,-203.68 1128.92,-203.68 1128.92,-231.2 1128.92,-231.2 1128.92,-237.2 1122.92,-243.2 1116.92,-243.2"/>
<text xml:space="preserve" text-anchor="start" x="1007.88" y="-228.94" font-family="Helvetica,sans-Serif" font-weight="bold" font-size="10.00">#244</text>
<text xml:space="preserve" text-anchor="start" x="1036.38" y="-228.94" font-family="Helvetica,sans-Serif" font-size="10.00"> BUG (quick win)</text>
<text xml:space="preserve" text-anchor="start" x="1013.88" y="-218.94" font-family="Helvetica,sans-Serif" font-size="10.00">nselib Series==&#39;EQ&#39;</text>
<text xml:space="preserve" text-anchor="start" x="1031.12" y="-208.94" font-family="Helvetica,sans-Serif" font-size="10.00">filter missing</text>
<text xml:space="preserve" text-anchor="start" x="1022.88" y="-198.94" font-family="Helvetica,sans-Serif" font-size="10.00">(GH issue #133)</text>
</g>
<!-- legend&#45;&gt;t244 -->
<!-- t227 -->
<g id="node11" class="node">
<title>t227</title>
<path fill="#cccccc" stroke="black" d="M2128.55,-243.2C2128.55,-243.2 2021.45,-243.2 2021.45,-243.2 2015.45,-243.2 2009.45,-237.2 2009.45,-231.2 2009.45,-231.2 2009.45,-203.68 2009.45,-203.68 2009.45,-197.68 2015.45,-191.68 2021.45,-191.68 2021.45,-191.68 2128.55,-191.68 2128.55,-191.68 2134.55,-191.68 2140.55,-197.68 2140.55,-203.68 2140.55,-203.68 2140.55,-231.2 2140.55,-231.2 2140.55,-237.2 2134.55,-243.2 2128.55,-243.2"/>
<text xml:space="preserve" text-anchor="start" x="2060.75" y="-228.94" font-family="Helvetica,sans-Serif" font-weight="bold" font-size="10.00">#227</text>
<text xml:space="preserve" text-anchor="start" x="2035.25" y="-218.94" font-family="Helvetica,sans-Serif" font-size="10.00">preserve orphan</text>
<text xml:space="preserve" text-anchor="start" x="2041.62" y="-208.94" font-family="Helvetica,sans-Serif" font-size="10.00">artifacts from</text>
<text xml:space="preserve" text-anchor="start" x="2020.25" y="-198.94" font-family="Helvetica,sans-Serif" font-size="10.00">wt&#45;top5&#45;rp1&#45;agentloop</text>
</g>
<!-- legend&#45;&gt;t227 -->
<!-- t246 -->
<g id="node13" class="node">
<title>t246</title>
<path fill="#cccccc" stroke="black" d="M1284.92,-243.2C1284.92,-243.2 1165.08,-243.2 1165.08,-243.2 1159.08,-243.2 1153.08,-237.2 1153.08,-231.2 1153.08,-231.2 1153.08,-203.68 1153.08,-203.68 1153.08,-197.68 1159.08,-191.68 1165.08,-191.68 1165.08,-191.68 1284.92,-191.68 1284.92,-191.68 1290.92,-191.68 1296.92,-197.68 1296.92,-203.68 1296.92,-203.68 1296.92,-231.2 1296.92,-231.2 1296.92,-237.2 1290.92,-243.2 1284.92,-243.2"/>
<text xml:space="preserve" text-anchor="start" x="1210.75" y="-228.94" font-family="Helvetica,sans-Serif" font-weight="bold" font-size="10.00">#246</text>
<text xml:space="preserve" text-anchor="start" x="1182.25" y="-218.94" font-family="Helvetica,sans-Serif" font-size="10.00">L1 (gap,|z|) tail —</text>
<text xml:space="preserve" text-anchor="start" x="1201" y="-208.94" font-family="Helvetica,sans-Serif" font-size="10.00">NOT dead</text>
<text xml:space="preserve" text-anchor="start" x="1163.88" y="-198.94" font-family="Helvetica,sans-Serif" font-size="10.00">(legacy&#45;resume fallback)</text>
</g>
<!-- legend&#45;&gt;t246 -->
<!-- t94 -->
<g id="node15" class="node">
<title>t94</title>
<path fill="#a3c8e8" stroke="black" stroke-dasharray="1,5" d="M1590.55,-238.2C1590.55,-238.2 1471.45,-238.2 1471.45,-238.2 1465.45,-238.2 1459.45,-232.2 1459.45,-226.2 1459.45,-226.2 1459.45,-208.68 1459.45,-208.68 1459.45,-202.68 1465.45,-196.68 1471.45,-196.68 1471.45,-196.68 1590.55,-196.68 1590.55,-196.68 1596.55,-196.68 1602.55,-202.68 1602.55,-208.68 1602.55,-208.68 1602.55,-226.2 1602.55,-226.2 1602.55,-232.2 1596.55,-238.2 1590.55,-238.2"/>
<text xml:space="preserve" text-anchor="start" x="1520.12" y="-223.94" font-family="Helvetica,sans-Serif" font-weight="bold" font-size="10.00">#94</text>
<text xml:space="preserve" text-anchor="start" x="1495.38" y="-213.94" font-family="Helvetica,sans-Serif" font-size="10.00">hourly wakeup</text>
<text xml:space="preserve" text-anchor="start" x="1470.25" y="-203.94" font-family="Helvetica,sans-Serif" font-size="10.00">(health + PRs + sweeps)</text>
</g>
<!-- legend&#45;&gt;t94 -->
<!-- g1 -->
<g id="node16" class="node">
<title>g1</title>
<path fill="#ffd966" stroke="black" d="M1442.62,-48.83C1442.62,-48.83 1442.62,-59.35 1442.62,-59.35 1442.62,-64.61 1437.71,-71.77 1432.81,-73.66 1432.81,-73.66 1394.66,-88.39 1394.66,-88.39 1389.75,-90.29 1379.59,-92.18 1374.33,-92.18 1374.33,-92.18 1313.67,-92.18 1313.67,-92.18 1308.41,-92.18 1298.25,-90.29 1293.34,-88.39 1293.34,-88.39 1255.19,-73.66 1255.19,-73.66 1250.29,-71.77 1245.38,-64.61 1245.38,-59.35 1245.38,-59.35 1245.38,-48.83 1245.38,-48.83 1245.38,-43.57 1250.29,-36.42 1255.19,-34.52 1255.19,-34.52 1293.34,-19.79 1293.34,-19.79 1298.25,-17.9 1308.41,-16 1313.67,-16 1313.67,-16 1374.33,-16 1374.33,-16 1379.59,-16 1389.75,-17.9 1394.66,-19.79 1394.66,-19.79 1432.81,-34.52 1432.81,-34.52 1437.71,-36.42 1442.62,-43.57 1442.62,-48.83"/>
<text xml:space="preserve" text-anchor="middle" x="1344" y="-63.72" font-family="Helvetica,sans-Serif" font-size="10.00">G1: clean canonical</text>
<text xml:space="preserve" text-anchor="middle" x="1344" y="-50.97" font-family="Helvetica,sans-Serif" font-size="10.00">R&#45;p@K reporting +</text>
<text xml:space="preserve" text-anchor="middle" x="1344" y="-38.22" font-family="Helvetica,sans-Serif" font-size="10.00">memos going forward</text>
</g>
<!-- legend&#45;&gt;g1 -->
<!-- v14p1&#45;&gt;t246 -->
<g id="edge10" class="edge">
<title>v14p1&#45;&gt;t246</title>
<path fill="none" stroke="#999999" stroke-dasharray="5,2" d="M60.72,-242.62C67.65,-260.46 79.75,-283.11 99,-294.2 149.16,-323.11 1087.19,-315.54 1141,-294.2 1163.21,-285.4 1183.18,-267.79 1198.07,-251.65"/>
<polygon fill="#999999" stroke="#999999" points="1200.36,-254.34 1204.37,-244.53 1195.12,-249.7 1200.36,-254.34"/>
<text xml:space="preserve" text-anchor="middle" x="618" y="-316.15" font-family="Helvetica,sans-Serif" font-size="9.00">gates</text>
<text xml:space="preserve" text-anchor="middle" x="618" y="-304.9" font-family="Helvetica,sans-Serif" font-size="9.00">(cleanup)</text>
</g>
<!-- v14p2 -->
<g id="node3" class="node">
<title>v14p2</title>
<path fill="#cccccc" stroke="black" d="M185.55,-242.33C185.55,-242.33 120.45,-242.33 120.45,-242.33 114.45,-242.33 108.45,-236.33 108.45,-230.33 108.45,-230.33 108.45,-204.56 108.45,-204.56 108.45,-198.56 114.45,-192.56 120.45,-192.56 120.45,-192.56 185.55,-192.56 185.55,-192.56 191.55,-192.56 197.55,-198.56 197.55,-204.56 197.55,-204.56 197.55,-230.33 197.55,-230.33 197.55,-236.33 191.55,-242.33 185.55,-242.33"/>
<text xml:space="preserve" text-anchor="middle" x="153" y="-227.07" font-family="Helvetica,sans-Serif" font-size="10.00">V1.4 P2</text>
<text xml:space="preserve" text-anchor="middle" x="153" y="-214.32" font-family="Helvetica,sans-Serif" font-size="10.00">tiebreak_path</text>
<text xml:space="preserve" text-anchor="middle" x="153" y="-201.57" font-family="Helvetica,sans-Serif" font-size="10.00">PR #136</text>
</g>
<!-- v14p3 -->
<g id="node4" class="node">
<title>v14p3</title>
<path fill="#cccccc" stroke="black" d="M522.55,-242.33C522.55,-242.33 475.45,-242.33 475.45,-242.33 469.45,-242.33 463.45,-236.33 463.45,-230.33 463.45,-230.33 463.45,-204.56 463.45,-204.56 463.45,-198.56 469.45,-192.56 475.45,-192.56 475.45,-192.56 522.55,-192.56 522.55,-192.56 528.55,-192.56 534.55,-198.56 534.55,-204.56 534.55,-204.56 534.55,-230.33 534.55,-230.33 534.55,-236.33 528.55,-242.33 522.55,-242.33"/>
<text xml:space="preserve" text-anchor="middle" x="499" y="-227.07" font-family="Helvetica,sans-Serif" font-size="10.00">V1.4 P3</text>
<text xml:space="preserve" text-anchor="middle" x="499" y="-214.32" font-family="Helvetica,sans-Serif" font-size="10.00">r1k replay</text>
<text xml:space="preserve" text-anchor="middle" x="499" y="-201.57" font-family="Helvetica,sans-Serif" font-size="10.00">PR #138</text>
</g>
<!-- v14p3&#45;&gt;t251 -->
<g id="edge8" class="edge">
<title>v14p3&#45;&gt;t251</title>
<path fill="none" stroke="#999999" stroke-dasharray="5,2" d="M508.53,-242.61C517.01,-261.05 531.36,-284.74 552.5,-295.91 567.82,-304.01 574.17,-295.97 591.5,-295.91 702.39,-295.53 739.55,-338.98 841,-294.2 860.71,-285.5 877.41,-268.37 889.65,-252.49"/>
<polygon fill="#999999" stroke="#999999" points="892.36,-254.72 895.44,-244.58 886.71,-250.59 892.36,-254.72"/>
<text xml:space="preserve" text-anchor="middle" x="572" y="-310.53" font-family="Helvetica,sans-Serif" font-size="9.00">surfaced</text>
</g>
<!-- v14p4 -->
<g id="node5" class="node">
<title>v14p4</title>
<path fill="#cccccc" stroke="black" d="M433.55,-242.33C433.55,-242.33 362.45,-242.33 362.45,-242.33 356.45,-242.33 350.45,-236.33 350.45,-230.33 350.45,-230.33 350.45,-204.56 350.45,-204.56 350.45,-198.56 356.45,-192.56 362.45,-192.56 362.45,-192.56 433.55,-192.56 433.55,-192.56 439.55,-192.56 445.55,-198.56 445.55,-204.56 445.55,-204.56 445.55,-230.33 445.55,-230.33 445.55,-236.33 439.55,-242.33 433.55,-242.33"/>
<text xml:space="preserve" text-anchor="middle" x="398" y="-227.07" font-family="Helvetica,sans-Serif" font-size="10.00">V1.4 P4</text>
<text xml:space="preserve" text-anchor="middle" x="398" y="-214.32" font-family="Helvetica,sans-Serif" font-size="10.00">cell&#45;5 anti&#45;AUC</text>
<text xml:space="preserve" text-anchor="middle" x="398" y="-201.57" font-family="Helvetica,sans-Serif" font-size="10.00">PR #139</text>
</g>
<!-- t252 -->
<g id="node8" class="node">
<title>t252</title>
<path fill="#cccccc" stroke="black" d="M820.17,-243.2C820.17,-243.2 713.83,-243.2 713.83,-243.2 707.83,-243.2 701.83,-237.2 701.83,-231.2 701.83,-231.2 701.83,-203.68 701.83,-203.68 701.83,-197.68 707.83,-191.68 713.83,-191.68 713.83,-191.68 820.17,-191.68 820.17,-191.68 826.17,-191.68 832.17,-197.68 832.17,-203.68 832.17,-203.68 832.17,-231.2 832.17,-231.2 832.17,-237.2 826.17,-243.2 820.17,-243.2"/>
<text xml:space="preserve" text-anchor="start" x="712.62" y="-228.94" font-family="Helvetica,sans-Serif" font-weight="bold" font-size="10.00">#252</text>
<text xml:space="preserve" text-anchor="start" x="741.12" y="-228.94" font-family="Helvetica,sans-Serif" font-size="10.00"> METHODOLOGY</text>
<text xml:space="preserve" text-anchor="start" x="715.25" y="-218.94" font-family="Helvetica,sans-Serif" font-size="10.00">segment_diagnostics</text>
<text xml:space="preserve" text-anchor="start" x="725.38" y="-208.94" font-family="Helvetica,sans-Serif" font-size="10.00">vs canonical CSV</text>
<text xml:space="preserve" text-anchor="start" x="729.88" y="-198.94" font-family="Helvetica,sans-Serif" font-size="10.00">(tie&#45;break drift)</text>
</g>
<!-- v14p4&#45;&gt;t252 -->
<g id="edge9" class="edge">
<title>v14p4&#45;&gt;t252</title>
<path fill="none" stroke="#999999" stroke-dasharray="5,2" d="M408.84,-242.81C418,-260.73 433.02,-283.42 454,-294.2 499.36,-317.52 636.08,-314.69 683.5,-295.91 706.02,-286.99 726.01,-268.8 740.78,-252.18"/>
<polygon fill="#999999" stroke="#999999" points="743.21,-254.72 747.03,-244.84 737.88,-250.18 743.21,-254.72"/>
<text xml:space="preserve" text-anchor="middle" x="664" y="-310.53" font-family="Helvetica,sans-Serif" font-size="9.00">surfaced</text>
</g>
<!-- cell5_manual -->
<g id="node6" class="node">
<title>cell5_manual</title>
<path fill="#cccccc" stroke="black" d="M320.05,-242.33C320.05,-242.33 227.95,-242.33 227.95,-242.33 221.95,-242.33 215.95,-236.33 215.95,-230.33 215.95,-230.33 215.95,-204.56 215.95,-204.56 215.95,-198.56 221.95,-192.56 227.95,-192.56 227.95,-192.56 320.05,-192.56 320.05,-192.56 326.05,-192.56 332.05,-198.56 332.05,-204.56 332.05,-204.56 332.05,-230.33 332.05,-230.33 332.05,-236.33 326.05,-242.33 320.05,-242.33"/>
<text xml:space="preserve" text-anchor="middle" x="274" y="-227.07" font-family="Helvetica,sans-Serif" font-size="10.00">#211</text>
<text xml:space="preserve" text-anchor="middle" x="274" y="-214.32" font-family="Helvetica,sans-Serif" font-size="10.00">cell&#45;5 manual track</text>
<text xml:space="preserve" text-anchor="middle" x="274" y="-201.57" font-family="Helvetica,sans-Serif" font-size="10.00">(R&#45;p@1 = 0.829)</text>
</g>
<!-- t218 -->
<g id="node9" class="node">
<title>t218</title>
<path fill="#ffffff" stroke="black" stroke-dasharray="5,2" d="M821.55,-74.85C821.55,-74.85 714.45,-74.85 714.45,-74.85 708.45,-74.85 702.45,-68.85 702.45,-62.85 702.45,-62.85 702.45,-45.33 702.45,-45.33 702.45,-39.33 708.45,-33.33 714.45,-33.33 714.45,-33.33 821.55,-33.33 821.55,-33.33 827.55,-33.33 833.55,-39.33 833.55,-45.33 833.55,-45.33 833.55,-62.85 833.55,-62.85 833.55,-68.85 827.55,-74.85 821.55,-74.85"/>
<text xml:space="preserve" text-anchor="start" x="753.75" y="-60.59" font-family="Helvetica,sans-Serif" font-weight="bold" font-size="10.00">#218</text>
<text xml:space="preserve" text-anchor="start" x="723" y="-50.59" font-family="Helvetica,sans-Serif" font-size="10.00">cell&#45;5 manual_xgb</text>
<text xml:space="preserve" text-anchor="start" x="713.25" y="-40.59" font-family="Helvetica,sans-Serif" font-size="10.00">artifact dir materialize</text>
</g>
<!-- cell5_manual&#45;&gt;t218 -->
<g id="edge11" class="edge">
<title>cell5_manual&#45;&gt;t218</title>
<path fill="none" stroke="#999999" stroke-dasharray="5,2" d="M321.16,-192.21C327.75,-189.17 334.49,-186.24 341,-183.68 460.63,-136.78 604.63,-96.64 691.11,-74.21"/>
<polygon fill="#999999" stroke="#999999" points="691.87,-77.63 700.68,-71.75 690.12,-70.85 691.87,-77.63"/>
<text xml:space="preserve" text-anchor="middle" x="438.33" y="-159.51" font-family="Helvetica,sans-Serif" font-size="9.00">enables</text>
</g>
<!-- t251&#45;&gt;g1 -->
<g id="edge14" class="edge">
<title>t251&#45;&gt;g1</title>
<path fill="none" stroke="#338866" stroke-width="2" d="M963.13,-191.19C970.35,-188.31 977.77,-185.69 985,-183.68 1020.8,-173.74 1032.12,-183.34 1068,-173.68 1140.84,-154.08 1219.48,-118.78 1274.11,-91.77"/>
<polygon fill="#338866" stroke="#338866" stroke-width="2" points="1275.64,-94.91 1283.02,-87.31 1272.51,-88.65 1275.64,-94.91"/>
</g>
<!-- t252&#45;&gt;t218 -->
<g id="edge13" class="edge">
<title>t252&#45;&gt;t218</title>
<path fill="none" stroke="#888888" stroke-dasharray="5,2" d="M767.16,-191.23C767.33,-162.91 767.62,-116.9 767.81,-86.32"/>
<polygon fill="#888888" stroke="#888888" points="771.3,-86.57 767.87,-76.55 764.3,-86.53 771.3,-86.57"/>
<text xml:space="preserve" text-anchor="middle" x="783.88" y="-165.13" font-family="Helvetica,sans-Serif" font-size="9.00">may</text>
<text xml:space="preserve" text-anchor="middle" x="783.88" y="-153.88" font-family="Helvetica,sans-Serif" font-size="9.00">obviate</text>
</g>
<!-- t252&#45;&gt;g1 -->
<g id="edge15" class="edge">
<title>t252&#45;&gt;g1</title>
<path fill="none" stroke="#338866" stroke-width="2" d="M821.89,-191.27C828.61,-188.55 835.42,-185.95 842,-183.68 880.26,-170.52 1112.61,-112.37 1247.4,-78.95"/>
<polygon fill="#338866" stroke="#338866" stroke-width="2" points="1247.93,-82.42 1256.79,-76.62 1246.24,-75.63 1247.93,-82.42"/>
</g>
<!-- t218&#45;&gt;g1 -->
<g id="edge16" class="edge">
<title>t218&#45;&gt;g1</title>
<path fill="none" stroke="#338866" stroke-dasharray="5,2" d="M833.81,-54.09C967.24,-54.09 1100.67,-54.09 1234.1,-54.09"/>
<polygon fill="#338866" stroke="#338866" points="1233.84,-57.59 1243.84,-54.09 1233.84,-50.59 1233.84,-57.59"/>
</g>
<!-- g3 -->
<g id="node18" class="node">
<title>g3</title>
<path fill="#ffd966" stroke="black" d="M1798.88,-50.18C1798.88,-50.18 1798.88,-58 1798.88,-58 1798.88,-61.92 1795.14,-66.97 1791.39,-68.11 1791.39,-68.11 1751.95,-80.14 1751.95,-80.14 1748.21,-81.28 1740.56,-82.43 1736.65,-82.43 1736.65,-82.43 1675.35,-82.43 1675.35,-82.43 1671.44,-82.43 1663.79,-81.28 1660.05,-80.14 1660.05,-80.14 1620.61,-68.11 1620.61,-68.11 1616.86,-66.97 1613.12,-61.92 1613.12,-58 1613.12,-58 1613.12,-50.18 1613.12,-50.18 1613.12,-46.27 1616.86,-41.21 1620.61,-40.07 1620.61,-40.07 1660.05,-28.04 1660.05,-28.04 1663.79,-26.9 1671.44,-25.76 1675.35,-25.76 1675.35,-25.76 1736.65,-25.76 1736.65,-25.76 1740.56,-25.76 1748.21,-26.9 1751.95,-28.04 1751.95,-28.04 1791.39,-40.07 1791.39,-40.07 1795.14,-41.21 1798.88,-46.27 1798.88,-50.18"/>
<text xml:space="preserve" text-anchor="middle" x="1706" y="-57.34" font-family="Helvetica,sans-Serif" font-size="10.00">G3: nselib adapter</text>
<text xml:space="preserve" text-anchor="middle" x="1706" y="-44.59" font-family="Helvetica,sans-Serif" font-size="10.00">backend correctness</text>
</g>
<!-- t244&#45;&gt;g3 -->
<g id="edge19" class="edge">
<title>t244&#45;&gt;g3</title>
<path fill="none" stroke="#a040a0" stroke-width="2" d="M1116.82,-191.32C1124.79,-188.34 1133.02,-185.66 1141,-183.68 1341.52,-134.09 1413.73,-223.59 1604,-143.18 1630.92,-131.81 1655.85,-110.56 1674.33,-91.79"/>
<polygon fill="#a040a0" stroke="#a040a0" stroke-width="2" points="1676.68,-94.4 1681.03,-84.74 1671.6,-89.57 1676.68,-94.4"/>
</g>
<!-- t219 -->
<g id="node12" class="node">
<title>t219</title>
<path fill="#ffffff" stroke="black" stroke-dasharray="5,2" d="M2133.18,-79.85C2133.18,-79.85 2020.83,-79.85 2020.83,-79.85 2014.83,-79.85 2008.83,-73.85 2008.83,-67.85 2008.83,-67.85 2008.83,-40.33 2008.83,-40.33 2008.83,-34.33 2014.83,-28.33 2020.83,-28.33 2020.83,-28.33 2133.18,-28.33 2133.18,-28.33 2139.18,-28.33 2145.18,-34.33 2145.18,-40.33 2145.18,-40.33 2145.18,-67.85 2145.18,-67.85 2145.18,-73.85 2139.18,-79.85 2133.18,-79.85"/>
<text xml:space="preserve" text-anchor="start" x="2062.75" y="-65.59" font-family="Helvetica,sans-Serif" font-weight="bold" font-size="10.00">#219</text>
<text xml:space="preserve" text-anchor="start" x="2019.62" y="-55.59" font-family="Helvetica,sans-Serif" font-size="10.00">prune 2 NTFS&#45;corrupted</text>
<text xml:space="preserve" text-anchor="start" x="2026.75" y="-45.59" font-family="Helvetica,sans-Serif" font-size="10.00">worktrees + wt&#45;top5</text>
<text xml:space="preserve" text-anchor="start" x="2045.5" y="-35.59" font-family="Helvetica,sans-Serif" font-size="10.00">(needs sudo)</text>
</g>
<!-- t227&#45;&gt;t219 -->
<g id="edge12" class="edge">
<title>t227&#45;&gt;t219</title>
<path fill="none" stroke="#cc3333" stroke-width="2.5" d="M2075.31,-191.23C2075.64,-165.06 2076.15,-123.81 2076.52,-93.56"/>
<polygon fill="#cc3333" stroke="#cc3333" stroke-width="2.5" points="2080.02,-93.95 2076.64,-83.91 2073.02,-93.87 2080.02,-93.95"/>
<text xml:space="preserve" text-anchor="middle" x="2102.01" y="-165.13" font-family="Helvetica,sans-Serif" font-size="9.00">gate open</text>
<text xml:space="preserve" text-anchor="middle" x="2102.01" y="-153.88" font-family="Helvetica,sans-Serif" font-size="9.00">(preserved)</text>
</g>
<!-- g2 -->
<g id="node17" class="node">
<title>g2</title>
<path fill="#ffd966" stroke="black" d="M1973.53,-48.83C1973.53,-48.83 1973.53,-59.35 1973.53,-59.35 1973.53,-64.61 1968.79,-72.17 1964.06,-74.46 1964.06,-74.46 1936.99,-87.59 1936.99,-87.59 1932.26,-89.89 1922.27,-92.18 1917.01,-92.18 1917.01,-92.18 1872.99,-92.18 1872.99,-92.18 1867.73,-92.18 1857.74,-89.89 1853.01,-87.59 1853.01,-87.59 1825.94,-74.46 1825.94,-74.46 1821.21,-72.17 1816.47,-64.61 1816.47,-59.35 1816.47,-59.35 1816.47,-48.83 1816.47,-48.83 1816.47,-43.57 1821.21,-36.02 1825.94,-33.72 1825.94,-33.72 1853.01,-20.59 1853.01,-20.59 1857.74,-18.3 1867.73,-16 1872.99,-16 1872.99,-16 1917.01,-16 1917.01,-16 1922.27,-16 1932.26,-18.3 1936.99,-20.59 1936.99,-20.59 1964.06,-33.72 1964.06,-33.72 1968.79,-36.02 1973.53,-43.57 1973.53,-48.83"/>
<text xml:space="preserve" text-anchor="middle" x="1895" y="-63.72" font-family="Helvetica,sans-Serif" font-size="10.00">G2: free disk</text>
<text xml:space="preserve" text-anchor="middle" x="1895" y="-50.97" font-family="Helvetica,sans-Serif" font-size="10.00">(prune corrupted</text>
<text xml:space="preserve" text-anchor="middle" x="1895" y="-38.22" font-family="Helvetica,sans-Serif" font-size="10.00">worktrees)</text>
</g>
<!-- t227&#45;&gt;g2 -->
<g id="edge17" class="edge">
<title>t227&#45;&gt;g2</title>
<path fill="none" stroke="#cc3333" stroke-width="2" d="M2046.88,-191.23C2019.16,-166.39 1976.26,-127.94 1943.12,-98.23"/>
<polygon fill="#cc3333" stroke="#cc3333" stroke-width="2" points="1945.65,-95.8 1935.87,-91.73 1940.98,-101.01 1945.65,-95.8"/>
</g>
<!-- t219&#45;&gt;g2 -->
<g id="edge18" class="edge">
<title>t219&#45;&gt;g2</title>
<path fill="none" stroke="#cc3333" stroke-width="2" d="M2008.54,-54.09C2001.33,-54.09 1994.12,-54.09 1986.9,-54.09"/>
<polygon fill="#cc3333" stroke="#cc3333" stroke-width="2" points="1986.94,-50.59 1976.94,-54.09 1986.94,-57.59 1986.94,-50.59"/>
</g>
<!-- g4 -->
<g id="node19" class="node">
<title>g4</title>
<path fill="#ffd966" stroke="black" d="M1595.05,-50.18C1595.05,-50.18 1595.05,-58 1595.05,-58 1595.05,-61.92 1591.44,-67.35 1587.84,-68.87 1587.84,-68.87 1562.98,-79.38 1562.98,-79.38 1559.37,-80.9 1551.86,-82.43 1547.95,-82.43 1547.95,-82.43 1508.05,-82.43 1508.05,-82.43 1504.14,-82.43 1496.63,-80.9 1493.02,-79.38 1493.02,-79.38 1468.16,-68.87 1468.16,-68.87 1464.56,-67.35 1460.95,-61.92 1460.95,-58 1460.95,-58 1460.95,-50.18 1460.95,-50.18 1460.95,-46.27 1464.56,-40.83 1468.16,-39.31 1468.16,-39.31 1493.02,-28.8 1493.02,-28.8 1496.63,-27.28 1504.14,-25.76 1508.05,-25.76 1508.05,-25.76 1547.95,-25.76 1547.95,-25.76 1551.86,-25.76 1559.37,-27.28 1562.98,-28.8 1562.98,-28.8 1587.84,-39.31 1587.84,-39.31 1591.44,-40.83 1595.05,-46.27 1595.05,-50.18"/>
<text xml:space="preserve" text-anchor="middle" x="1528" y="-57.34" font-family="Helvetica,sans-Serif" font-size="10.00">G4: codebase</text>
<text xml:space="preserve" text-anchor="middle" x="1528" y="-44.59" font-family="Helvetica,sans-Serif" font-size="10.00">hygiene</text>
</g>
<!-- t246&#45;&gt;g4 -->
<g id="edge20" class="edge">
<title>t246&#45;&gt;g4</title>
<path fill="none" stroke="#888888" stroke-dasharray="5,2" d="M1284.87,-191.35C1291.95,-188.64 1299.11,-186.03 1306,-183.68 1369.76,-162.03 1395.12,-179.23 1452,-143.18 1472.63,-130.11 1490.73,-109.73 1504.08,-91.87"/>
<polygon fill="#888888" stroke="#888888" points="1506.72,-94.19 1509.74,-84.04 1501.05,-90.1 1506.72,-94.19"/>
</g>
<!-- t206 -->
<g id="node14" class="node">
<title>t206</title>
<path fill="#ffffff" stroke="black" stroke-dasharray="5,2" d="M1423.3,-243.2C1423.3,-243.2 1326.7,-243.2 1326.7,-243.2 1320.7,-243.2 1314.7,-237.2 1314.7,-231.2 1314.7,-231.2 1314.7,-203.68 1314.7,-203.68 1314.7,-197.68 1320.7,-191.68 1326.7,-191.68 1326.7,-191.68 1423.3,-191.68 1423.3,-191.68 1429.3,-191.68 1435.3,-197.68 1435.3,-203.68 1435.3,-203.68 1435.3,-231.2 1435.3,-231.2 1435.3,-237.2 1429.3,-243.2 1423.3,-243.2"/>
<text xml:space="preserve" text-anchor="start" x="1360.75" y="-228.94" font-family="Helvetica,sans-Serif" font-weight="bold" font-size="10.00">#206</text>
<text xml:space="preserve" text-anchor="start" x="1325.5" y="-218.94" font-family="Helvetica,sans-Serif" font-size="10.00">/gbdt&#45;diagnose retry</text>
<text xml:space="preserve" text-anchor="start" x="1343.12" y="-208.94" font-family="Helvetica,sans-Serif" font-size="10.00">on cell&#45;4 mix</text>
<text xml:space="preserve" text-anchor="start" x="1326.25" y="-198.94" font-family="Helvetica,sans-Serif" font-size="10.00">(_195 memo polish)</text>
</g>
<!-- t206&#45;&gt;g4 -->
<g id="edge21" class="edge">
<title>t206&#45;&gt;g4</title>
<path fill="none" stroke="#888888" stroke-dasharray="5,2" d="M1423.69,-191.31C1431.33,-188.25 1439.26,-185.55 1447,-183.68 1470.79,-177.96 1650.09,-191.38 1667,-173.68 1712.39,-126.19 1638.19,-161.53 1604,-143.18 1582.02,-131.39 1563.57,-110.48 1550.35,-91.99"/>
<polygon fill="#888888" stroke="#888888" points="1553.31,-90.13 1544.77,-83.85 1547.54,-94.08 1553.31,-90.13"/>
</g>
<!-- t94&#45;&gt;g1 -->
<g id="edge22" class="edge">
<title>t94&#45;&gt;g1</title>
<path fill="none" stroke="#aaaaaa" stroke-dasharray="1,5" d="M1507.69,-196.34C1479.69,-172.17 1431.88,-130.91 1395.13,-99.21"/>
<polygon fill="#aaaaaa" stroke="#aaaaaa" points="1397.53,-96.66 1387.67,-92.77 1392.96,-101.96 1397.53,-96.66"/>
</g>
<!-- t94&#45;&gt;g2 -->
<g id="edge23" class="edge">
<title>t94&#45;&gt;g2</title>
<path fill="none" stroke="#aaaaaa" stroke-dasharray="1,5" d="M1602.98,-210.64C1662.33,-202.91 1746.46,-184.94 1808,-143.18 1825.56,-131.27 1842.51,-115.45 1856.72,-100.5"/>
<polygon fill="#aaaaaa" stroke="#aaaaaa" points="1859.05,-103.13 1863.28,-93.42 1853.91,-98.37 1859.05,-103.13"/>
</g>
<!-- t94&#45;&gt;g3 -->
<g id="edge24" class="edge">
<title>t94&#45;&gt;g3</title>
<path fill="none" stroke="#aaaaaa" stroke-dasharray="1,5" d="M1602.56,-209.17C1648.67,-202.84 1702.6,-191.76 1717,-173.68 1734.73,-151.42 1730.21,-118.82 1722.25,-93.43"/>
<polygon fill="#aaaaaa" stroke="#aaaaaa" points="1725.61,-92.43 1719.04,-84.12 1718.99,-94.71 1725.61,-92.43"/>
</g>
</g>
</svg>
